<svg width="105" height="42" viewBox="0 0 105 42" fill="none" xmlns="http://www.w3.org/2000/svg">
<path d="M18.9634 22.1822L15.4172 22.8109L18.7318 23.0839L16.7822 30.7084L9.67058 31.9686L13.1947 18.2142L14.9788 17.897L0 16.5431L20.6206 12.8894C21.0398 12.815 21.4176 13.0631 21.4589 13.496L22.3193 20.7262L24.5005 12.2L31.6121 10.9398L26.0943 32.4925L20.0526 31.2985L18.9606 22.1795L18.9634 22.1822Z" fill="white"/>
<path d="M47.2803 25.3037L29.5137 28.45L34.1077 10.4793L51.8743 7.33303L50.49 12.7377L36.2889 15.2526L39.6034 15.5256L39.3718 16.4273L48.2454 14.8555L47.3437 18.4348L38.4508 20.0093L37.9903 21.81L48.6453 19.9211L47.2831 25.301L47.2803 25.3037Z" fill="white"/>
<path d="M70.959 3.95242C71.4416 3.86693 71.8194 4.19784 71.8194 4.6611C71.8194 4.74382 71.7973 4.81276 71.778 4.89824L67.6445 21.0683C67.5397 21.4654 67.2033 21.777 66.8255 21.8431L50.8403 24.6751C50.3577 24.7606 49.9799 24.4297 49.9799 23.9885C49.9799 23.9058 49.9799 23.8423 50.002 23.7541L54.1355 7.58405C54.2403 7.18697 54.5767 6.85608 54.9738 6.78438L70.959 3.95242ZM63.5965 10.416L56.4849 11.6762L59.8215 11.9437L58.2056 18.228L61.7517 17.5993L63.5965 10.4133V10.416Z" fill="white"/>
<path d="M87.278 18.2198L80.1664 19.48L79.2233 11.4888L75.6772 12.1175L78.9917 12.3905L77.0394 20.0343L69.9278 21.2945L74.5218 3.32377L80.8558 2.20147C81.297 2.12426 81.6748 2.39174 81.7161 2.82467L82.5765 10.0548L84.7577 1.50933L91.8693 0.249146L87.2753 18.2198H87.278Z" fill="white"/>
<path d="M27.0869 41.1927C26.8001 41.2424 26.574 41.0466 26.574 40.7708C26.574 40.7322 26.574 40.6826 26.5878 40.644L29.1633 30.5956L33.3905 29.8456L31.6147 36.8138L29.4887 37.1916L31.4768 37.3515L31.8767 37.2798L34.0413 35.2448L35.5166 29.4678L39.7438 28.7178L37.8301 36.221L38.23 36.1493L40.3946 34.1142L41.8588 28.34L46.0999 27.59L44.4619 34.0067C44.4371 34.1225 44.3737 34.2217 44.2744 34.3155L39.2723 39.0281L35.0313 39.7781L34.2564 38.8902L32.919 40.1532L27.0896 41.1872L27.0869 41.1927Z" fill="#FF0677"/>
<path d="M49.0864 37.2963L44.8453 38.0463L47.4843 27.7388C47.5477 27.5016 47.7462 27.3031 47.9834 27.2617L57.5023 25.5741C57.7891 25.5245 58.0152 25.7203 58.0152 25.996C58.0152 26.0456 58.0152 26.0843 58.0042 26.1366L55.4397 36.1685L51.1986 36.9185L52.0231 33.7088L49.8971 34.0865L49.0836 37.2935L49.0864 37.2963ZM48.8851 30.1791L50.8622 30.3418L50.4486 31.9412L52.5746 31.5634L53.1123 29.4291L48.8851 30.1791Z" fill="#FF0677"/>
<path d="M62.0824 31.4174L59.9674 31.7924L61.9445 31.9551L67.2472 31.0148L66.4227 34.2245L56.8928 35.9121L59.631 25.1964L63.872 24.4464L62.0824 31.4174Z" fill="#FF0677"/>
<path d="M73.1234 29.4622L71.0084 29.8372L72.9855 29.9999L78.2882 29.0596L77.4637 32.2694L67.9338 33.957L70.672 23.2413L74.913 22.4912L73.1234 29.4595V29.4622Z" fill="#FF0677"/>
<path d="M89.5721 30.1242L78.9777 32.002L81.7159 21.2863L92.3103 19.4085L91.4858 22.632L83.0175 24.1321L84.9946 24.2948L84.8567 24.8325L90.1484 23.895L89.6107 26.0293L84.308 26.9696L84.0322 28.045L90.3855 26.9199L89.5721 30.1269V30.1242Z" fill="#FF0677"/>
<path d="M96.1735 21.8018L92.9968 22.3644L93.8213 19.1408L104.405 17.2657L103.591 20.4865L98.2885 21.4268L100.277 21.5757L98.487 28.5467L94.2598 29.2968L96.1735 21.8046V21.8018Z" fill="#FF0677"/>
</svg>
